<svg viewBox="0 0 120 120" xmlns="http://www.w3.org/2000/svg">
  <defs>
    <linearGradient id="acmWGradient" x1="0%" y1="0%" x2="100%" y2="100%">
      <stop offset="0%" style="stop-color:#e91e63;stop-opacity:1" />
      <stop offset="50%" style="stop-color:#3498db;stop-opacity:1" />
      <stop offset="100%" style="stop-color:#9c27b0;stop-opacity:1" />
    </linearGradient>
    <filter id="shadowW" x="-20%" y="-20%" width="140%" height="140%">
      <feDropShadow dx="2" dy="2" stdDeviation="3" flood-opacity="0.3"/>
    </filter>
  </defs>
  
  <!-- Background circle -->
  <circle cx="60" cy="60" r="55" fill="url(#acmWGradient)" filter="url(#shadowW)"/>
  
  <!-- ACM-W Logo Design -->
  <g transform="translate(60,60)">
    <!-- Letter A -->
    <g transform="translate(-25,0) scale(0.8)">
      <path d="M -8,-20 L 8,-20 L 15,20 L 8,20 L 5,10 L -5,10 L -8,20 L -15,20 Z M -3,0 L 3,0 L 0,-10 Z" 
            fill="white" opacity="0.95"/>
    </g>
    
    <!-- Letter C -->
    <g transform="translate(-5,0) scale(0.8)">
      <path d="M 8,-20 C 15,-20 20,-15 20,-8 L 15,-8 C 15,-12 12,-15 8,-15 L -8,-15 
               C -12,-15 -15,-12 -15,-8 L -15,8 C -15,12 -12,15 -8,15 L 8,15 
               C 12,15 15,12 15,8 L 20,8 C 20,15 15,20 8,20 L -8,20 
               C -15,20 -20,15 -20,8 L -20,-8 C -20,-15 -15,-20 -8,-20 Z" 
            fill="white" opacity="0.95"/>
    </g>
    
    <!-- Letter M -->
    <g transform="translate(15,0) scale(0.8)">
      <path d="M -15,-20 L -8,-20 L 0,0 L 8,-20 L 15,-20 L 15,20 L 8,20 L 8,-5 L 3,10 
               L -3,10 L -8,-5 L -8,20 L -15,20 Z" 
            fill="white" opacity="0.95"/>
    </g>
    
    <!-- Letter W -->
    <g transform="translate(35,-5) scale(0.6)">
      <path d="M -20,-15 L -15,-15 L -8,10 L -3,-15 L 3,-15 L 8,10 L 15,-15 L 20,-15 
               L 10,20 L 5,20 L 0,0 L -5,20 L -10,20 Z" 
            fill="white" opacity="0.95"/>
    </g>
    
    <!-- Female symbol integrated -->
    <g transform="translate(0,25)">
      <circle cx="0" cy="0" r="8" fill="none" stroke="white" stroke-width="2" opacity="0.8"/>
      <line x1="0" y1="8" x2="0" y2="20" stroke="white" stroke-width="2" opacity="0.8"/>
      <line x1="-6" y1="16" x2="6" y2="16" stroke="white" stroke-width="2" opacity="0.8"/>
    </g>
    
    <!-- Decorative stars -->
    <g fill="white" opacity="0.6">
      <polygon points="-35,-25 -33,-23 -31,-25 -33,-27" transform="scale(1.5)"/>
      <polygon points="35,-25 37,-23 39,-25 37,-27" transform="scale(1)"/>
      <polygon points="-35,15 -33,17 -31,15 -33,13" transform="scale(1)"/>
      <polygon points="35,15 37,17 39,15 37,13" transform="scale(1.2)"/>
    </g>
    
    <!-- Empowerment rays -->
    <g stroke="white" stroke-width="1" opacity="0.4">
      <line x1="-40" y1="-10" x2="-30" y2="-5"/>
      <line x1="40" y1="-10" x2="30" y2="-5"/>
      <line x1="-40" y1="10" x2="-30" y2="5"/>
      <line x1="40" y1="10" x2="30" y2="5"/>
    </g>
  </g>
  
  <!-- Subtitle text -->
  <text x="60" y="105" text-anchor="middle" fill="#2c3e50" font-family="Arial, sans-serif" 
        font-size="9" font-weight="500">ACM-W Chapter</text>
</svg>
